<?xml version="1.0" standalone="no"?>
<!DOCTYPE svg PUBLIC "-//W3C//DTD SVG 20010904//EN"
 "http://www.w3.org/TR/2001/REC-SVG-20010904/DTD/svg10.dtd">
<svg version="1.0" xmlns="http://www.w3.org/2000/svg"
 width="512.000000pt" height="512.000000pt" viewBox="0 0 512.000000 512.000000"
 preserveAspectRatio="xMidYMid meet">

<g transform="translate(0.000000,512.000000) scale(0.100000,-0.100000)"
fill="#000000" stroke="none">
<path d="M470 4975 c-176 -43 -327 -162 -405 -320 -69 -141 -66 -30 -63 -1928
l3 -1712 23 -65 c13 -36 38 -90 55 -120 41 -73 158 -188 232 -227 36 -19 338
-116 770 -249 l710 -217 110 -1 c121 -1 176 10 269 56 154 75 275 215 315 366
l12 42 275 0 c315 0 384 9 504 68 55 27 95 57 150 112 85 85 129 159 159 270
20 71 21 99 21 602 l0 528 99 0 100 0 3 -186 3 -186 29 -25 c62 -53 56 -56
661 366 303 210 565 398 583 417 22 23 32 43 32 64 0 21 -10 41 -32 64 -18 19
-280 207 -583 417 -605 422 -599 419 -661 366 l-29 -25 -3 -186 -3 -186 -100
0 -99 0 0 690 c0 458 -4 707 -11 742 -6 29 -29 91 -51 138 -32 67 -57 101
-117 160 -87 87 -165 132 -277 160 -75 19 -114 20 -1353 19 -1031 -1 -1287 -3
-1331 -14z m355 -235 c497 -148 1227 -373 1264 -390 65 -31 118 -78 161 -142
74 -112 70 -1 70 -1841 0 -1147 -3 -1661 -11 -1703 -31 -166 -153 -289 -323
-324 -33 -7 -82 -9 -110 -6 -78 10 -1424 424 -1475 453 -97 56 -170 161 -191
272 -13 72 -14 3328 0 3400 29 154 160 289 310 321 72 15 156 4 305 -40z
m2296 34 c109 -32 208 -118 257 -222 l27 -57 3 -707 3 -708 -247 0 -246 0 -29
-29 -29 -29 0 -392 0 -392 29 -29 29 -29 247 0 246 0 -3 -542 -3 -543 -28 -57
c-43 -88 -107 -152 -195 -195 l-76 -38 -293 -3 -293 -3 -2 1643 c-3 1523 -4
1647 -21 1701 -52 176 -178 324 -332 392 -27 12 -216 73 -420 134 -203 62
-372 115 -374 117 -2 2 378 4 846 4 746 0 856 -2 904 -16z m1376 -1902 c188
-130 342 -239 342 -242 0 -3 -186 -134 -412 -291 l-412 -285 -5 134 -5 134
-33 29 -32 29 -440 0 -440 0 0 250 0 250 441 0 441 0 34 34 34 34 0 131 0 132
73 -51 c39 -29 226 -158 414 -288z"/>
</g>
</svg>
