<?xml version="1.0" standalone="no"?>
<!DOCTYPE svg PUBLIC "-//W3C//DTD SVG 20010904//EN"
 "http://www.w3.org/TR/2001/REC-SVG-20010904/DTD/svg10.dtd">
<svg version="1.0" xmlns="http://www.w3.org/2000/svg"
 width="512.000000pt" height="512.000000pt" viewBox="0 0 512.000000 512.000000"
 preserveAspectRatio="xMidYMid meet">

<g transform="translate(0.000000,512.000000) scale(0.100000,-0.100000)"
fill="#000000" stroke="none">
<path d="M2405 5114 c-16 -2 -73 -9 -125 -15 -438 -49 -829 -234 -1149 -544
-165 -159 -383 -447 -412 -546 -14 -44 -2 -98 29 -136 18 -23 648 -505 697
-534 17 -10 47 -21 67 -24 66 -12 110 19 223 157 134 164 316 346 385 384 239
133 579 124 805 -20 141 -91 205 -192 205 -324 -1 -222 -117 -357 -445 -519
-349 -172 -652 -468 -759 -741 -47 -119 -60 -204 -60 -387 -1 -167 0 -171 28
-228 52 -105 3 -97 595 -97 492 0 517 1 548 19 45 28 83 99 93 174 13 104 63
208 161 332 77 98 128 137 354 268 147 85 189 115 332 235 136 113 218 212
282 341 156 311 190 650 96 976 -33 117 -137 325 -222 445 -272 382 -767 681
-1273 766 -83 14 -395 27 -455 18z"/>
<path d="M1965 1266 c-44 -20 -85 -68 -96 -112 -11 -51 -11 -977 0 -1028 12
-48 64 -103 111 -117 22 -6 217 -9 547 -7 501 3 512 3 540 24 15 11 38 36 51
54 l22 33 0 527 0 527 -22 33 c-13 18 -36 43 -51 54 -28 21 -38 21 -550 23
-421 2 -528 0 -552 -11z"/>
</g>
</svg>
